# xmcd
#
# Track frame offsets: 
#        182
#        19520
#        39365
#
# Disc length: 756 seconds
#
# Revision: 3
# Processed by: cddbd v1.5.2PL0 Copyright (c) Steve Scherf et al.
# Submitted via: ExactAudioCopy v0.99pb5
#
DISCID=1502f203
DTITLE=Dark Sun Riders (Featuring Brother J) - Dark Sun Riders (Promo 
DTITLE=CD Single)
DYEAR=1996
DGENRE=Hip-Hop
TTITLE0=Dark Sun Riders (Ultra Jazz Mix)
TTITLE1=Dark Sun Riders (Album Version)
TTITLE2=Time To Build (Album Version)
EXTD=
EXTT0=
EXTT1=
EXTT2=
PLAYORDER=
